Preview_ExtremoAsciiRestart-Weight_900.00_Width_100.00_Optical Size_127.00_Grade_0.00.ufo
<glyph name="comma" format="2">
  <advance width="681"/>
  <unicode hex="002C"/>
  <outline>
    <contour>
      <point x="38.04230769230769" y="-156.63846153846154" type="line"/>
      <point x="77.93230769230769" y="-97.8076923076923"/>
      <point x="113.5153846153846" y="32.5923076923077"/>
      <point x="113.5153846153846" y="98.82307692307693" type="qcurve" smooth="yes"/>
      <point x="113.5153846153846" y="469.8461538461538" type="line"/>
      <point x="589.9153846153846" y="469.8461538461538" type="line"/>
      <point x="589.9467692307692" y="102.3" type="line" smooth="yes"/>
      <point x="589.9467692307692" y="20.10769230769231"/>
      <point x="526.3901538461538" y="-153.43076923076922"/>
      <point x="471.8186153846154" y="-202.94230769230768" type="qcurve"/>
    </contour>
  </outline>
</glyph>
<glyph name="slash" format="2">
  <advance width="883"/>
  <unicode hex="002F"/>
  <outline>
    <contour>
      <point x="-100.0" y="-125.0" type="line"/>
      <point x="470.4346153846154" y="1456.0" type="line"/>
      <point x="934.7423076923078" y="1456.0" type="line"/>
      <point x="363.50384615384615" y="-125.0" type="line"/>
    </contour>
  </outline>
</glyph>
<glyph name="two" format="2">
  <advance width="1331"/>
  <unicode hex="0032"/>
  <outline>
    <contour>
      <point x="19.37692307692307" y="0.0" type="line"/>
      <point x="19.37692307692307" y="325.4923076923077" type="line"/>
      <point x="615.2692307692307" y="829.1923076923076" type="line" smooth="yes"/>
      <point x="656.2846153846153" y="865.823076923077"/>
      <point x="707.5538461538462" y="950.9769230769231"/>
      <point x="707.5538461538462" y="1010.2461538461539" type="qcurve" smooth="yes"/>
      <point x="707.5538461538462" y="1070.3000000000002"/>
      <point x="680.1384615384616" y="1111.4076923076923"/>
      <point x="645.9846153846154" y="1111.4076923076923" type="qcurve" smooth="yes"/>
      <point x="610.223076923077" y="1111.4076923076923"/>
      <point x="582.0153846153846" y="1049.5153846153846"/>
      <point x="582.0153846153846" y="936.9846153846153" type="qcurve" smooth="yes"/>
      <point x="582.0153846153846" y="879.176923076923" type="line"/>
      <point x="18.28461538461538" y="879.176923076923" type="line"/>
      <point x="18.28461538461538" y="1020.4307692307691" type="line" smooth="yes"/>
      <point x="18.28461538461538" y="1199.8384615384616"/>
      <point x="362.83076923076925" y="1477.3076923076924"/>
      <point x="655.0692307692308" y="1477.3076923076924" type="qcurve" smooth="yes"/>
      <point x="972.0846153846154" y="1477.3076923076924"/>
      <point x="1264.2" y="1238.1846153846154"/>
      <point x="1265.9384615384615" y="1033.2846153846153" type="qcurve" smooth="yes"/>
      <point x="1266.8076923076924" y="883.2076923076922"/>
      <point x="1149.8076923076924" y="656.3846153846155"/>
      <point x="1045.5" y="573.8461538461539" type="qcurve" smooth="yes"/>
      <point x="880.1615384615384" y="433.04615384615386" type="line"/>
      <point x="1300.8538461538462" y="433.04615384615386" type="line"/>
      <point x="1300.8538461538462" y="0.0" type="line"/>
    </contour>
  </outline>
</glyph>
<glyph name="three" format="2">
  <advance width="1331"/>
  <unicode hex="0033"/>
  <outline>
    <contour>
      <point x="24.107692307692304" y="446.7230769230769" type="qcurve" smooth="yes"/>
      <point x="24.107692307692304" y="557.5538461538462" type="line"/>
      <point x="566.8461538461538" y="557.5538461538462" type="line"/>
      <point x="566.8461538461538" y="469.3230769230769" type="line" smooth="yes"/>
      <point x="567.7153846153847" y="398.4846153846154"/>
      <point x="615.7461538461539" y="336.7692307692308"/>
      <point x="660.7692307692308" y="336.7692307692308" type="qcurve" smooth="yes"/>
      <point x="703.0538461538462" y="336.7692307692308"/>
      <point x="750.4307692307692" y="391.66153846153844"/>
      <point x="750.4307692307692" y="472.15384615384613" type="qcurve" smooth="yes"/>
      <point x="750.4307692307692" y="545.4307692307692"/>
      <point x="700.8307692307693" y="601.4538461538461"/>
      <point x="646.7615384615385" y="601.4538461538461" type="qcurve" smooth="yes"/>
      <point x="481.4538461538462" y="601.4538461538461" type="line"/>
      <point x="481.4538461538462" y="891.6846153846154" type="line"/>
      <point x="642.2384615384616" y="891.6846153846154" type="line" smooth="yes"/>
      <point x="681.7" y="891.6846153846154"/>
      <point x="730.423076923077" y="948.0538461538462"/>
      <point x="730.423076923077" y="1008.9384615384615" type="qcurve" smooth="yes"/>
      <point x="730.423076923077" y="1071.5615384615385"/>
      <point x="687.5307692307692" y="1117.4923076923078"/>
      <point x="648.6" y="1117.4923076923078" type="qcurve" smooth="yes"/>
      <point x="608.5384615384615" y="1117.4923076923078"/>
      <point x="574.0307692307692" y="1051.5230769230768"/>
      <point x="574.0307692307692" y="989.8153846153846" type="qcurve" smooth="yes"/>
      <point x="574.0307692307692" y="931.1384615384616" type="line"/>
      <point x="46.06923076923078" y="931.1384615384616" type="line"/>
      <point x="46.06923076923078" y="1007.1999999999999" type="line" smooth="yes"/>
      <point x="43.46153846153847" y="1230.8307692307692"/>
      <point x="389.96153846153845" y="1477.3076923076924"/>
      <point x="669.4615384615385" y="1477.3076923076924" type="qcurve" smooth="yes"/>
      <point x="961.3615384615384" y="1477.3076923076924"/>
      <point x="1275.7692307692307" y="1254.4384615384615"/>
      <point x="1275.7692307692307" y="1076.0923076923077" type="qcurve" smooth="yes"/>
      <point x="1275.7692307692307" y="974.7461538461538"/>
      <point x="1180.3307692307692" y="817.2615384615385"/>
      <point x="1081.9769230769232" y="766.8692307692307" type="qcurve"/>
      <point x="1081.9769230769232" y="762.8692307692307" type="line"/>
      <point x="1164.6000000000001" y="736.6923076923076"/>
      <point x="1306.7307692307693" y="572.9461538461538"/>
      <point x="1306.7307692307693" y="433.46923076923076" type="qcurve" smooth="yes"/>
      <point x="1306.7307692307693" y="240.63846153846154"/>
      <point x="948.053846153846" y="-21.307692307692307"/>
      <point x="660.7692307692308" y="-21.307692307692307" type="qcurve" smooth="yes"/>
      <point x="368.6461538461539" y="-21.307692307692307"/>
      <point x="24.107692307692304" y="225.56153846153848"/>
    </contour>
  </outline>
</glyph>
<glyph name="four" format="2">
  <advance width="1331"/>
  <unicode hex="0034"/>
  <outline>
    <contour>
      <point x="651.6769230769231" y="0.0" type="line"/>
      <point x="651.6769230769231" y="348.45384615384614" type="line"/>
      <point x="670.8" y="367.4230769230769" type="line"/>
      <point x="670.8" y="813.7846153846154" type="line"/>
      <point x="661.4076923076923" y="813.7846153846154" type="line"/>
      <point x="521.7615384615385" y="631.2692307692307" type="line"/>
      <point x="881.223076923077" y="631.2692307692307" type="line"/>
      <point x="914.3230769230769" y="648.6538461538462" type="line"/>
      <point x="1303.8307692307692" y="648.6538461538462" type="line"/>
      <point x="1303.8307692307692" y="233.64615384615388" type="line"/>
      <point x="21.32307692307692" y="233.64615384615388" type="line"/>
      <point x="21.32307692307692" y="606.5692307692308" type="line"/>
      <point x="718.9153846153847" y="1456.0" type="line"/>
      <point x="1156.123076923077" y="1456.0" type="line"/>
      <point x="1156.123076923077" y="0.0" type="line"/>
    </contour>
  </outline>
</glyph>
<glyph name="eight" format="2">
  <advance width="1331"/>
  <unicode hex="0038"/>
  <outline>
    <contour>
      <point x="28.946153846153834" y="412.94615384615383" type="qcurve" smooth="yes"/>
      <point x="28.946153846153834" y="549.0307692307692"/>
      <point x="176.89999999999998" y="732.7692307692307"/>
      <point x="262.13076923076926" y="760.3846153846154" type="qcurve"/>
      <point x="262.13076923076926" y="764.3846153846154" type="line"/>
      <point x="166.65384615384613" y="813.7307692307692"/>
      <point x="68.73076923076923" y="971.3461538461539"/>
      <point x="68.73076923076923" y="1075.7" type="qcurve" smooth="yes"/>
      <point x="68.73076923076923" y="1254.8307692307692"/>
      <point x="379.67692307692306" y="1477.3076923076924"/>
      <point x="665.6923076923076" y="1477.3076923076924" type="qcurve" smooth="yes"/>
      <point x="951.8384615384615" y="1477.3076923076924"/>
      <point x="1261.9153846153845" y="1254.8307692307692"/>
      <point x="1261.9153846153845" y="1075.7" type="qcurve" smooth="yes"/>
      <point x="1261.9153846153845" y="971.3461538461539"/>
      <point x="1162.9923076923078" y="803.3"/>
      <point x="1069.3846153846155" y="764.3846153846154" type="qcurve"/>
      <point x="1069.3846153846155" y="760.3846153846154" type="line"/>
      <point x="1154.6153846153848" y="732.7692307692307"/>
      <point x="1301.5692307692307" y="549.0307692307692"/>
      <point x="1301.5692307692307" y="412.94615384615383" type="qcurve" smooth="yes"/>
      <point x="1301.5692307692307" y="221.03076923076924"/>
      <point x="956.0615384615385" y="-21.307692307692307"/>
      <point x="665.6923076923076" y="-21.307692307692307" type="qcurve" smooth="yes"/>
      <point x="375.3230769230769" y="-21.307692307692307"/>
      <point x="28.946153846153834" y="221.03076923076924"/>
    </contour>
    <contour>
      <point x="592.6769230769231" y="472.0615384615385" type="qcurve" smooth="yes"/>
      <point x="592.6769230769231" y="380.4923076923077"/>
      <point x="628.9692307692308" y="326.7692307692308"/>
      <point x="664.8230769230769" y="326.7692307692308" type="qcurve" smooth="yes"/>
      <point x="700.676923076923" y="326.7692307692308"/>
      <point x="736.9692307692308" y="380.4923076923077"/>
      <point x="736.9692307692308" y="472.0615384615385" type="qcurve" smooth="yes"/>
      <point x="736.9692307692308" y="564.7615384615384"/>
      <point x="702.4153846153846" y="617.4"/>
      <point x="665.6923076923077" y="617.4" type="qcurve" smooth="yes"/>
      <point x="628.9692307692308" y="617.4"/>
      <point x="592.6769230769231" y="564.7615384615385"/>
    </contour>
    <contour>
      <point x="597.3846153846154" y="993.9846153846155" type="qcurve" smooth="yes"/>
      <point x="597.3846153846154" y="920.7153846153846"/>
      <point x="631.3230769230769" y="867.3846153846155"/>
      <point x="664.8230769230769" y="867.3846153846155" type="qcurve" smooth="yes"/>
      <point x="698.3230769230769" y="867.3846153846155"/>
      <point x="732.3923076923077" y="920.7153846153846"/>
      <point x="732.3923076923077" y="993.9846153846155" type="qcurve" smooth="yes"/>
      <point x="732.3923076923077" y="1066.8615384615384"/>
      <point x="698.3230769230769" y="1121.4076923076923"/>
      <point x="664.8230769230769" y="1121.4076923076923" type="qcurve" smooth="yes"/>
      <point x="631.3230769230769" y="1121.4076923076923"/>
      <point x="597.3846153846154" y="1066.8615384615387"/>
    </contour>
  </outline>
</glyph>
<glyph name="semicolon" format="2">
  <advance width="640"/>
  <unicode hex="003B"/>
  <outline>
    <contour>
      <point x="42.543384615384625" y="-158.37692307692308" type="line"/>
      <point x="80.69492307692309" y="-101.28461538461538"/>
      <point x="115.48461538461538" y="24.76923076923077"/>
      <point x="115.40876923076922" y="88.3923076923077" type="qcurve" smooth="yes"/>
      <point x="115.35384615384615" y="443.20000000000005" type="line"/>
      <point x="571.8" y="443.20000000000005" type="line"/>
      <point x="571.8444615384616" y="91.86923076923077" type="line" smooth="yes"/>
      <point x="571.8444615384616" y="12.284615384615385"/>
      <point x="511.2843076923077" y="-155.43076923076922"/>
      <point x="458.93507692307696" y="-202.94230769230768" type="qcurve"/>
    </contour>
    <contour>
      <point x="57.35384615384615" y="833.5615384615385" type="qcurve" smooth="yes"/>
      <point x="57.35384615384615" y="934.6102981838435"/>
      <point x="193.70225722149175" y="1072.4043076923078"/>
      <point x="319.7189230769231" y="1072.4043076923078" type="qcurve" smooth="yes"/>
      <point x="446.6056241853788" y="1072.4043076923078"/>
      <point x="582.9846153846154" y="934.6102981838435"/>
      <point x="582.9846153846154" y="833.5615384615385" type="qcurve" smooth="yes"/>
      <point x="582.9846153846154" y="729.9062034739454"/>
      <point x="446.65384615384613" y="592.0692307692308"/>
      <point x="319.66923076923075" y="592.0692307692308" type="qcurve" smooth="yes"/>
      <point x="193.68461538461537" y="592.0692307692308"/>
      <point x="57.35384615384615" y="732.5138957816376"/>
    </contour>
  </outline>
</glyph>
<glyph name="A" format="2">
  <advance width="1485"/>
  <unicode hex="0041"/>
  <anchor x="731.6861538461538" y="1432.0" name="top"/>
  <outline>
    <contour>
      <point x="-17.384615384615387" y="0.0" type="line"/>
      <point x="449.1307692307692" y="1455.7846153846153" type="line"/>
      <point x="1054.1684615384615" y="1455.7846153846153" type="line"/>
      <point x="1502.4953846153846" y="0.0" type="line"/>
      <point x="954.0376923076923" y="0.0" type="line"/>
      <point x="755.6704615384615" y="762.1923076923077" type="line" smooth="yes"/>
      <point x="744.8666153846154" y="802.1461538461539"/>
      <point x="731.5396923076923" y="863.2769230769231"/>
      <point x="729.8858461538462" y="871.9384615384615" type="qcurve"/>
      <point x="727.1012307692308" y="871.9384615384615" type="line"/>
      <point x="725.4473846153846" y="863.2769230769231"/>
      <point x="711.2512307692308" y="803.0153846153846"/>
      <point x="702.1858461538461" y="763.0615384615385" type="qcurve" smooth="yes"/>
      <point x="522.0672307692307" y="0.0" type="line"/>
    </contour>
    <contour>
      <point x="402.23846153846154" y="181.14615384615385" type="line"/>
      <point x="435.9076923076923" y="532.4846153846154" type="line"/>
      <point x="1035.9241538461538" y="532.4846153846154" type="line"/>
      <point x="1070.5698461538461" y="181.14615384615385" type="line"/>
    </contour>
  </outline>
</glyph>
<glyph name="I" format="2">
  <advance width="693"/>
  <unicode hex="0049"/>
  <anchor x="356.0063076923077" y="1432.0" name="top"/>
  <outline>
    <contour>
      <point x="61.13076923076922" y="0.0" type="line"/>
      <point x="61.13076923076922" y="1456.0" type="line"/>
      <point x="631.7587692307693" y="1456.0" type="line"/>
      <point x="631.7587692307693" y="0.0" type="line"/>
    </contour>
  </outline>
</glyph>
<glyph name="J" format="2">
  <advance width="1265"/>
  <unicode hex="004A"/>
  <outline>
    <contour>
      <point x="25.0" y="524.5384615384615" type="qcurve" smooth="yes"/>
      <point x="25.0" y="621.4615384615385" type="line"/>
      <point x="515.6587692307692" y="621.4615384615385" type="line"/>
      <point x="515.6587692307692" y="440.2230769230769" type="line" smooth="yes"/>
      <point x="515.6587692307692" y="388.45384615384614"/>
      <point x="548.6433846153845" y="339.4423076923077"/>
      <point x="581.1049230769231" y="339.4423076923077" type="qcurve" smooth="yes"/>
      <point x="612.6972307692307" y="339.4423076923077"/>
      <point x="647.4203076923077" y="393.95748594313807"/>
      <point x="647.4203076923077" y="453.05384615384617" type="qcurve" smooth="yes"/>
      <point x="647.4203076923077" y="1456.0" type="line"/>
      <point x="1210.2252307692308" y="1456.0" type="line"/>
      <point x="1210.2252307692308" y="539.1076923076923" type="line" smooth="yes"/>
      <point x="1210.2252307692308" y="273.6192307692308"/>
      <point x="918.7787692307693" y="-21.307692307692307"/>
      <point x="618.4818461538462" y="-21.307692307692307" type="qcurve" smooth="yes"/>
      <point x="329.48492307692305" y="-21.307692307692307"/>
      <point x="25.0" y="237.7576923076923"/>
    </contour>
  </outline>
</glyph>
<glyph name="L" format="2">
  <advance width="1146"/>
  <unicode hex="004C"/>
  <outline>
    <contour>
      <point x="57.0" y="0.0" type="line"/>
      <point x="57.0" y="1456.0" type="line"/>
      <point x="618.9356923076923" y="1456.0" type="line"/>
      <point x="618.9356923076923" y="433.04615384615386" type="line"/>
      <point x="1125.1664615384616" y="433.04615384615386" type="line"/>
      <point x="1125.1664615384616" y="0.0" type="line"/>
    </contour>
  </outline>
</glyph>
<glyph name="O" format="2">
  <advance width="1442"/>
  <unicode hex="004F"/>
  <anchor x="719.3021538461539" y="1432.0" name="top"/>
  <outline>
    <contour>
      <point x="35.89999999999999" y="688.0846153846154" type="qcurve" smooth="yes"/>
      <point x="35.89999999999999" y="767.9153846153846" type="line" smooth="yes"/>
      <point x="35.89999999999999" y="1132.6"/>
      <point x="423.08415384615387" y="1477.3076923076924"/>
      <point x="721.0406153846154" y="1477.3076923076924" type="qcurve" smooth="yes"/>
      <point x="1019.8545065666041" y="1477.3076923076924"/>
      <point x="1406.1812307692308" y="1132.6"/>
      <point x="1406.1812307692308" y="767.9153846153846" type="qcurve" smooth="yes"/>
      <point x="1406.1812307692308" y="688.0846153846154" type="line" smooth="yes"/>
      <point x="1406.1812307692308" y="323.4"/>
      <point x="1019.8545065666041" y="-21.307692307692307"/>
      <point x="721.0406153846154" y="-21.307692307692307" type="qcurve" smooth="yes"/>
      <point x="423.08415384615387" y="-21.307692307692307"/>
      <point x="35.89999999999999" y="323.4"/>
    </contour>
    <contour>
      <point x="623.2098461538462" y="505.54615384615386" type="line" smooth="yes"/>
      <point x="623.2098461538462" y="420.85087029758563"/>
      <point x="670.956" y="340.63846153846157"/>
      <point x="721.0406153846154" y="340.63846153846157" type="qcurve" smooth="yes"/>
      <point x="771.1252307692307" y="340.63846153846157"/>
      <point x="818.8713846153846" y="420.85087029758563"/>
      <point x="818.8713846153846" y="505.54615384615386" type="qcurve" smooth="yes"/>
      <point x="818.8713846153846" y="946.9769230769231" type="line" smooth="yes"/>
      <point x="818.8713846153846" y="1029.064514317799"/>
      <point x="771.1252307692307" y="1106.6692307692308"/>
      <point x="721.0406153846154" y="1106.6692307692308" type="qcurve" smooth="yes"/>
      <point x="670.956" y="1106.6692307692308"/>
      <point x="623.2098461538462" y="1029.064514317799"/>
      <point x="623.2098461538462" y="946.9769230769231" type="qcurve" smooth="yes"/>
    </contour>
  </outline>
</glyph>
<glyph name="U" format="2">
  <advance width="1375"/>
  <unicode hex="0055"/>
  <anchor x="680.9664615384615" y="1432.0" name="top"/>
  <outline>
    <contour>
      <point x="48.08461538461539" y="561.0307692307692" type="qcurve" smooth="yes"/>
      <point x="48.08461538461539" y="1456.0" type="line"/>
      <point x="608.2818461538461" y="1456.0" type="line"/>
      <point x="608.2818461538461" y="472.3692307692308" type="line" smooth="yes"/>
      <point x="608.2818461538461" y="399.7230769230769"/>
      <point x="642.7587692307693" y="343.24615384615385"/>
      <point x="679.228" y="343.24615384615385" type="qcurve" smooth="yes"/>
      <point x="716.5664615384616" y="343.24615384615385"/>
      <point x="751.0433846153846" y="399.78846153846155"/>
      <point x="751.0433846153846" y="472.3692307692308" type="qcurve" smooth="yes"/>
      <point x="751.0433846153846" y="1456.0" type="line"/>
      <point x="1313.8483076923076" y="1456.0" type="line"/>
      <point x="1313.8483076923076" y="561.0307692307692" type="line" smooth="yes"/>
      <point x="1313.8483076923076" y="264.6791136850057"/>
      <point x="980.0993846153847" y="-21.307692307692307"/>
      <point x="688.7895384615384" y="-21.307692307692307" type="qcurve" smooth="yes"/>
      <point x="383.572" y="-21.307692307692307"/>
      <point x="48.08461538461539" y="264.6791136850057"/>
    </contour>
  </outline>
</glyph>
<glyph name="asciicircum" format="2">
  <advance width="1238"/>
  <unicode hex="005E"/>
  <outline>
    <contour>
      <point x="7.615384615384613" y="720.0" type="line"/>
      <point x="412.61538461538464" y="1456.0" type="line"/>
      <point x="825.3615384615384" y="1456.0" type="line"/>
      <point x="1230.3615384615384" y="720.0" type="line"/>
      <point x="787.6153846153846" y="720.0" type="line"/>
      <point x="618.553846153846" y="1047.773076923077" type="line"/>
      <point x="450.36153846153843" y="720.0" type="line"/>
    </contour>
  </outline>
</glyph>
<glyph name="e" format="2">
  <advance width="1255"/>
  <unicode hex="0065"/>
  <anchor x="640.0974615384615" y="935.6357692307693" name="top"/>
  <outline>
    <contour>
      <point x="19.8076923076923" y="456.98292307692304" type="qcurve" smooth="yes"/>
      <point x="19.8076923076923" y="488.98292307692304" type="line" smooth="yes"/>
      <point x="19.8076923076923" y="712.1021719043151"/>
      <point x="355.6703076923077" y="970.7504615384615"/>
      <point x="644.7692307692307" y="970.7504615384615" type="qcurve" smooth="yes"/>
      <point x="923.9212307692308" y="970.7504615384615"/>
      <point x="1228.2153846153847" y="712.1373986013986"/>
      <point x="1228.2153846153847" y="498.2906153846154" type="qcurve" smooth="yes"/>
      <point x="1228.2153846153847" y="430.406" type="line"/>
      <point x="342.6576923076923" y="430.406" type="line"/>
      <point x="342.6576923076923" y="526.1829230769231" type="line"/>
      <point x="708.4961538461538" y="526.1829230769231" type="line"/>
      <point x="708.4961538461538" y="532.9136923076923" type="line"/>
      <point x="708.4961538461538" y="574.6059658119658"/>
      <point x="677.4021862348178" y="623.7196923076923"/>
      <point x="638.6846153846154" y="623.7196923076923" type="qcurve" smooth="yes"/>
      <point x="600.7312978490704" y="623.7196923076923"/>
      <point x="561.2576923076923" y="564.8575262515263"/>
      <point x="561.2576923076923" y="502.0213846153846" type="qcurve" smooth="yes"/>
      <point x="561.2576923076923" y="453.506" type="line" smooth="yes"/>
      <point x="561.2576923076923" y="384.5923770816812"/>
      <point x="606.9270221195113" y="322.24615384615385"/>
      <point x="651.6461538461539" y="322.24615384615385" type="qcurve" smooth="yes"/>
      <point x="692.3951416247304" y="322.24615384615385"/>
      <point x="738.8963076923077" y="359.0923076923077"/>
      <point x="751.7853846153847" y="388.6692307692308" type="qcurve"/>
      <point x="1221.789230769231" y="313.20769230769235" type="line"/>
      <point x="1168.6784615384615" y="140.46153846153845"/>
      <point x="902.4463076923078" y="-27.39230769230769"/>
      <point x="654.2538461538462" y="-27.39230769230769" type="qcurve" smooth="yes"/>
      <point x="351.7095384615385" y="-27.39230769230769"/>
      <point x="19.8076923076923" y="229.5140678062678"/>
    </contour>
  </outline>
</glyph>
<glyph name="h" format="2">
  <advance width="1270"/>
  <unicode hex="0068"/>
  <outline>
    <contour>
      <point x="35.0" y="0.0" type="line"/>
      <point x="35.0" y="1466.4615384615386" type="line"/>
      <point x="576.6409230769231" y="1466.4615384615386" type="line"/>
      <point x="577.5101538461538" y="815.5350769230769" type="line"/>
      <point x="605.319076923077" y="877.4504615384616"/>
      <point x="761.9581538461539" y="963.3581538461539"/>
      <point x="890.3847692307693" y="963.3581538461539" type="qcurve" smooth="yes"/>
      <point x="1045.0629230769232" y="963.3581538461539"/>
      <point x="1241.2895384615385" y="798.1273846153846"/>
      <point x="1241.2895384615385" y="613.5427692307692" type="qcurve" smooth="yes"/>
      <point x="1241.2895384615385" y="0.0" type="line"/>
      <point x="697.9101538461539" y="0.0" type="line"/>
      <point x="697.9101538461539" y="509.4966153846153" type="line" smooth="yes"/>
      <point x="697.9101538461539" y="546.6581538461538"/>
      <point x="669.3447692307692" y="581.7273846153846"/>
      <point x="645.1063076923077" y="581.7273846153846" type="qcurve" smooth="yes"/>
      <point x="622.1101538461538" y="581.7273846153846"/>
      <point x="588.4524615384615" y="547.685076923077"/>
      <point x="578.3793846153847" y="520.3427692307692" type="qcurve"/>
      <point x="578.3793846153847" y="0.0" type="line"/>
    </contour>
  </outline>
</glyph>
<glyph name="q" format="2">
  <advance width="1290"/>
  <unicode hex="0071"/>
  <outline>
    <contour>
      <point x="19.8076923076923" y="452.59230769230766" type="qcurve" smooth="yes"/>
      <point x="19.8076923076923" y="484.59230769230766" type="line" smooth="yes"/>
      <point x="19.8076923076923" y="689.3"/>
      <point x="239.5153846153846" y="955.5769230769231"/>
      <point x="424.30769230769226" y="955.5769230769231" type="qcurve" smooth="yes"/>
      <point x="547.1692307692308" y="955.5769230769231"/>
      <point x="696.9538461538461" y="879.7923076923076"/>
      <point x="732.5615384615385" y="829.223076923077" type="qcurve"/>
      <point x="733.2153846153846" y="829.223076923077" type="line"/>
      <point x="734.1307692307693" y="935.5769230769231" type="line"/>
      <point x="1255.4307692307693" y="935.5769230769231" type="line"/>
      <point x="1255.4307692307693" y="-417.73846153846154" type="line"/>
      <point x="726.8230769230769" y="-417.73846153846154" type="line"/>
      <point x="726.8230769230769" y="129.86153846153846" type="line"/>
      <point x="730.3" y="129.86153846153846" type="line"/>
      <point x="685.2153846153847" y="67.12307692307692"/>
      <point x="532.3923076923078" y="-20.0"/>
      <point x="424.3076923076923" y="-20.0" type="qcurve" smooth="yes"/>
      <point x="235.16923076923075" y="-20.0"/>
      <point x="19.8076923076923" y="248.01538461538462"/>
    </contour>
    <contour>
      <point x="556.4676923076922" y="460.4598461538461" type="line" smooth="yes"/>
      <point x="556.4676923076922" y="401.2137574277574"/>
      <point x="596.06" y="323.9923076923077"/>
      <point x="638.3715384615384" y="323.9923076923077" type="qcurve" smooth="yes"/>
      <point x="666.8253846153847" y="323.9923076923077"/>
      <point x="706.2215384615384" y="364.5576923076923"/>
      <point x="714.7061538461538" y="390.1153846153846" type="qcurve"/>
      <point x="714.7061538461538" y="545.4196923076923" type="line"/>
      <point x="706.2215384615384" y="570.9773846153846"/>
      <point x="666.8253846153847" y="611.5427692307692"/>
      <point x="638.3715384615384" y="611.5427692307692" type="qcurve" smooth="yes"/>
      <point x="596.06" y="611.5427692307692"/>
      <point x="556.4676923076922" y="532.5801893491124"/>
      <point x="556.4676923076922" y="473.3367692307692" type="qcurve" smooth="yes"/>
    </contour>
  </outline>
</glyph>
<glyph name="r" format="2">
  <advance width="935"/>
  <unicode hex="0072"/>
  <outline>
    <contour>
      <point x="35.0" y="0.0" type="line"/>
      <point x="35.0" y="935.535076923077" type="line"/>
      <point x="586.7178461538462" y="935.535076923077" type="line"/>
      <point x="587.6332307692307" y="809.2350769230769" type="line"/>
      <point x="589.2216923076924" y="809.2350769230769" type="line"/>
      <point x="628.0736358927552" y="872.5351237988251"/>
      <point x="751.6447692307693" y="949.8889230769231"/>
      <point x="822.514" y="949.8889230769231" type="qcurve" smooth="yes"/>
      <point x="864.114" y="949.8889230769231"/>
      <point x="921.7601538461539" y="940.7581538461538"/>
      <point x="931.5640000000001" y="936.7581538461538" type="qcurve"/>
      <point x="931.5640000000001" y="559.8966153846154" type="line"/>
      <point x="911.8909230769231" y="569.9812307692307"/>
      <point x="852.1601538461539" y="578.3273846153845"/>
      <point x="815.3178461538462" y="578.3273846153845" type="qcurve" smooth="yes"/>
      <point x="754.92321386306" y="578.3273846153845"/>
      <point x="629.2732015096038" y="505.88526487452657"/>
      <point x="593.1563076923077" y="443.888923076923" type="qcurve"/>
      <point x="593.1563076923077" y="0.0" type="line"/>
    </contour>
  </outline>
</glyph>
<glyph name="y" format="2">
  <advance width="1229"/>
  <unicode hex="0079"/>
  <anchor x="638.0669230769231" y="935.535076923077" name="top"/>
  <outline>
    <contour>
      <point x="-36.11692307692307" y="-405.5692307692308" type="qcurve"/>
      <point x="16.90615384615385" y="-81.96153846153845" type="line"/>
      <point x="56.549692307692304" y="-87.41923076923075"/>
      <point x="135.66492307692306" y="-93.8769230769231"/>
      <point x="176.6353846153846" y="-93.8769230769231" type="qcurve" smooth="yes"/>
      <point x="267.21707692307695" y="-93.8769230769231"/>
      <point x="356.4846153846154" y="-55.37692307692308"/>
      <point x="376.1461538461539" y="1.3076923076923084" type="qcurve" smooth="yes"/>
      <point x="366.46923076923076" y="2.1769230769230763" type="line"/>
      <point x="-7.384615384615387" y="935.535076923077" type="line"/>
      <point x="509.5184615384615" y="935.535076923077" type="line"/>
      <point x="612.9355384615385" y="587.6646153846154" type="line" smooth="yes"/>
      <point x="618.724076923077" y="568.496076923077"/>
      <point x="627.7663076923077" y="538.0723076923077"/>
      <point x="632.6355384615384" y="517.1953846153847" type="qcurve"/>
      <point x="633.2893846153846" y="517.1953846153847" type="line"/>
      <point x="639.0278461538461" y="538.0723076923077"/>
      <point x="647.1694615384615" y="568.496076923077"/>
      <point x="653.8586153846154" y="588.5338461538462" type="qcurve" smooth="yes"/>
      <point x="767.9793846153847" y="935.535076923077" type="line"/>
      <point x="1237.3123076923077" y="935.535076923077" type="line"/>
      <point x="910.97" y="65.13846153846154" type="line" smooth="yes"/>
      <point x="793.795076923077" y="-236.99615384615385"/>
      <point x="513.9453846153847" y="-436.0"/>
      <point x="296.99538461538464" y="-436.0" type="qcurve" smooth="yes"/>
      <point x="169.27630769230768" y="-436.0"/>
      <point x="13.477846153846158" y="-418.30769230769226"/>
    </contour>
  </outline>
</glyph>
<glyph name="bar" format="2">
  <advance width="761"/>
  <unicode hex="007C"/>
  <outline>
    <contour>
      <point x="105.6923076923077" y="-416.0" type="line"/>
      <point x="105.6923076923077" y="1456.0" type="line"/>
      <point x="654.9587692307692" y="1456.0" type="line"/>
      <point x="654.9587692307692" y="-416.0" type="line"/>
    </contour>
  </outline>
</glyph>
<glyph name="hungarumlaut" format="2">
  <advance width="1024"/>
  <unicode hex="02DD"/>
  <outline>
    <contour>
      <point x="536.9615384615383" y="1203.7076923076925" type="line"/>
      <point x="766.9615384615385" y="1506.7076923076925" type="line"/>
      <point x="970.6923076923077" y="1499.3846153846152" type="line"/>
      <point x="702.6923076923077" y="1196.3846153846155" type="line"/>
    </contour>
    <contour>
      <point x="256.96153846153845" y="1203.7076923076925" type="line"/>
      <point x="426.96153846153845" y="1506.7076923076925" type="line"/>
      <point x="621.6923076923076" y="1499.3846153846152" type="line"/>
      <point x="403.6923076923077" y="1196.3846153846155" type="line"/>
    </contour>
  </outline>
</glyph>
<glyph name="fraction" format="2">
  <advance width="342"/>
  <unicode hex="2044"/>
  <guideline x="0" y="901.0" angle="0" identifier="tcCoNUQTdD"/>
  <guideline x="0" y="555.0" angle="0" identifier="0lx51aIE0d"/>
  <outline>
    <contour>
      <point x="727.5923076923076" y="1301.2615384615385" type="line"/>
      <point x="-16.169230769230765" y="-29.83076923076923" type="line"/>
      <point x="-382.0615384615385" y="164.0076923076923" type="line"/>
      <point x="355.3538461538462" y="1488.9692307692308" type="line"/>
    </contour>
  </outline>
</glyph>
<glyph name="gravecomb.case" format="2">
  <advance width="1024"/>
  <outline>
    <contour>
      <point x="461.91538461538465" y="1596.6923076923076" type="line"/>
      <point x="168.36153846153846" y="1953.5" type="line"/>
      <point x="387.04615384615386" y="1968.5384615384617" type="line"/>
      <point x="619.6076923076923" y="1606.2384615384615" type="line"/>
    </contour>
  </outline>
</glyph>
<glyph name="zerosuperior" format="2">
  <advance width="803"/>
  <outline>
    <contour>
      <point x="13.5" y="1070.746153846154" type="qcurve" smooth="yes"/>
      <point x="13.5" y="1130.4461538461537" type="line" smooth="yes"/>
      <point x="13.5" y="1297.4384615384615"/>
      <point x="229.83846153846153" y="1493.3846153846152"/>
      <point x="401.7076923076923" y="1493.3846153846152" type="qcurve" smooth="yes"/>
      <point x="573.5769230769231" y="1493.3846153846152"/>
      <point x="789.0461538461539" y="1297.4384615384615"/>
      <point x="789.0461538461539" y="1130.4461538461537" type="qcurve" smooth="yes"/>
      <point x="789.0461538461539" y="1070.746153846154" type="line" smooth="yes"/>
      <point x="789.0461538461539" y="882.1538461538462"/>
      <point x="573.5769230769231" y="677.3846153846155"/>
      <point x="401.7076923076923" y="677.3846153846155" type="qcurve" smooth="yes"/>
      <point x="229.83846153846153" y="677.3846153846155"/>
      <point x="13.5" y="882.1538461538462"/>
    </contour>
    <contour>
      <point x="352.24615384615385" y="1004.0307692307692" type="line" smooth="yes"/>
      <point x="352.24615384615385" y="950.1153846153846"/>
      <point x="375.0846153846154" y="914.7538461538461"/>
      <point x="401.7076923076923" y="914.7538461538461" type="qcurve" smooth="yes"/>
      <point x="428.33076923076925" y="914.7538461538461"/>
      <point x="450.3" y="950.1153846153846"/>
      <point x="450.3" y="1004.0307692307692" type="qcurve" smooth="yes"/>
      <point x="450.3" y="1158.0461538461539" type="line" smooth="yes"/>
      <point x="450.3" y="1211.9615384615383"/>
      <point x="430.9384615384616" y="1256.0153846153844"/>
      <point x="401.7076923076923" y="1256.0153846153844" type="qcurve" smooth="yes"/>
      <point x="372.4769230769231" y="1256.0153846153844"/>
      <point x="352.24615384615385" y="1211.9615384615383"/>
      <point x="352.24615384615385" y="1158.0461538461539" type="qcurve" smooth="yes"/>
    </contour>
  </outline>
</glyph>
